<svg xmlns="http://www.w3.org/2000/svg" version="1.1" xmlns:xlink="http://www.w3.org/1999/xlink" xmlns:svgjs="http://svgjs.com/svgjs" width="1440" height="2880" preserveAspectRatio="none" viewBox="0 0 1440 2880"><g mask="url(&quot;#SvgjsMask1036&quot;)" fill="none"><rect width="1440" height="2880" x="0" y="0" fill="rgba(34, 40, 49, 1)"></rect><path d="M482 2003L481 3194" stroke-width="8" stroke="url(#SvgjsLinearGradient1037)" stroke-linecap="round" class="Up"></path><path d="M564 520L563 1711" stroke-width="10" stroke="url(#SvgjsLinearGradient1038)" stroke-linecap="round" class="Down"></path><path d="M910 1098L909 2336" stroke-width="6" stroke="url(#SvgjsLinearGradient1037)" stroke-linecap="round" class="Up"></path><path d="M831 2281L830 276" stroke-width="10" stroke="url(#SvgjsLinearGradient1037)" stroke-linecap="round" class="Up"></path><path d="M563 407L562 -341" stroke-width="6" stroke="url(#SvgjsLinearGradient1038)" stroke-linecap="round" class="Down"></path><path d="M266 538L265 -1434" stroke-width="8" stroke="url(#SvgjsLinearGradient1038)" stroke-linecap="round" class="Down"></path><path d="M1389 1168L1388 -284" stroke-width="8" stroke="url(#SvgjsLinearGradient1038)" stroke-linecap="round" class="Down"></path><path d="M483 2833L482 4322" stroke-width="8" stroke="url(#SvgjsLinearGradient1037)" stroke-linecap="round" class="Up"></path><path d="M880 2521L879 857" stroke-width="10" stroke="url(#SvgjsLinearGradient1037)" stroke-linecap="round" class="Up"></path><path d="M931 2635L930 1744" stroke-width="6" stroke="url(#SvgjsLinearGradient1037)" stroke-linecap="round" class="Up"></path><path d="M713 2290L712 4362" stroke-width="8" stroke="url(#SvgjsLinearGradient1037)" stroke-linecap="round" class="Up"></path><path d="M1077 2708L1076 3920" stroke-width="6" stroke="url(#SvgjsLinearGradient1038)" stroke-linecap="round" class="Down"></path><path d="M1189 698L1188 -593" stroke-width="6" stroke="url(#SvgjsLinearGradient1037)" stroke-linecap="round" class="Up"></path><path d="M644 851L643 2972" stroke-width="10" stroke="url(#SvgjsLinearGradient1038)" stroke-linecap="round" class="Down"></path><path d="M63 1876L62 3978" stroke-width="8" stroke="url(#SvgjsLinearGradient1037)" stroke-linecap="round" class="Up"></path><path d="M305 200L304 2230" stroke-width="8" stroke="url(#SvgjsLinearGradient1037)" stroke-linecap="round" class="Up"></path><path d="M1228 825L1227 -1182" stroke-width="8" stroke="url(#SvgjsLinearGradient1037)" stroke-linecap="round" class="Up"></path><path d="M374 184L373 1926" stroke-width="6" stroke="url(#SvgjsLinearGradient1037)" stroke-linecap="round" class="Up"></path><path d="M1028 406L1027 1196" stroke-width="8" stroke="url(#SvgjsLinearGradient1038)" stroke-linecap="round" class="Down"></path><path d="M295 2715L294 1410" stroke-width="6" stroke="url(#SvgjsLinearGradient1037)" stroke-linecap="round" class="Up"></path><path d="M178 2601L177 3628" stroke-width="6" stroke="url(#SvgjsLinearGradient1038)" stroke-linecap="round" class="Down"></path><path d="M270 1634L269 2678" stroke-width="8" stroke="url(#SvgjsLinearGradient1038)" stroke-linecap="round" class="Down"></path><path d="M647 1393L646 2199" stroke-width="8" stroke="url(#SvgjsLinearGradient1037)" stroke-linecap="round" class="Up"></path><path d="M538 2752L537 3528" stroke-width="10" stroke="url(#SvgjsLinearGradient1038)" stroke-linecap="round" class="Down"></path><path d="M654 2255L653 4061" stroke-width="8" stroke="url(#SvgjsLinearGradient1037)" stroke-linecap="round" class="Up"></path><path d="M320 1928L319 3517" stroke-width="6" stroke="url(#SvgjsLinearGradient1038)" stroke-linecap="round" class="Down"></path><path d="M132 1902L131 3947" stroke-width="10" stroke="url(#SvgjsLinearGradient1038)" stroke-linecap="round" class="Down"></path><path d="M280 1071L279 3099" stroke-width="8" stroke="url(#SvgjsLinearGradient1037)" stroke-linecap="round" class="Up"></path><path d="M1178 394L1177 -498" stroke-width="10" stroke="url(#SvgjsLinearGradient1037)" stroke-linecap="round" class="Up"></path><path d="M1269 1488L1268 3563" stroke-width="8" stroke="url(#SvgjsLinearGradient1037)" stroke-linecap="round" class="Up"></path><path d="M975 2788L974 3805" stroke-width="8" stroke="url(#SvgjsLinearGradient1037)" stroke-linecap="round" class="Up"></path><path d="M915 65L914 815" stroke-width="8" stroke="url(#SvgjsLinearGradient1037)" stroke-linecap="round" class="Up"></path><path d="M724 27L723 871" stroke-width="6" stroke="url(#SvgjsLinearGradient1037)" stroke-linecap="round" class="Up"></path><path d="M1351 2484L1350 1028" stroke-width="10" stroke="url(#SvgjsLinearGradient1037)" stroke-linecap="round" class="Up"></path><path d="M1062 765L1061 2827" stroke-width="10" stroke="url(#SvgjsLinearGradient1037)" stroke-linecap="round" class="Up"></path><path d="M373 1517L372 3629" stroke-width="6" stroke="url(#SvgjsLinearGradient1037)" stroke-linecap="round" class="Up"></path></g><defs><mask id="SvgjsMask1036"><rect width="1440" height="2880" fill="#ffffff"></rect></mask><linearGradient x1="0%" y1="100%" x2="0%" y2="0%" id="SvgjsLinearGradient1037"><stop stop-color="rgba(255, 122, 0, 0)" offset="0"></stop><stop stop-color="rgba(255, 122, 0, 1)" offset="1"></stop></linearGradient><linearGradient x1="0%" y1="0%" x2="0%" y2="100%" id="SvgjsLinearGradient1038"><stop stop-color="rgba(255, 122, 0, 0)" offset="0"></stop><stop stop-color="rgba(255, 122, 0, 1)" offset="1"></stop></linearGradient></defs></svg>