<svg xmlns="http://www.w3.org/2000/svg" version="1.1" xmlns:xlink="http://www.w3.org/1999/xlink" xmlns:svgjs="http://svgjs.com/svgjs" width="1440" height="2880" preserveAspectRatio="none" viewBox="0 0 1440 2880"><g mask="url(&quot;#SvgjsMask1039&quot;)" fill="none"><rect width="1440" height="2880" x="0" y="0" fill="rgba(34, 40, 49, 1)"></rect><path d="M265 2195L264 1419" stroke-width="8" stroke="url(#SvgjsLinearGradient1040)" stroke-linecap="round" class="Up"></path><path d="M397 1825L396 2953" stroke-width="8" stroke="url(#SvgjsLinearGradient1041)" stroke-linecap="round" class="Down"></path><path d="M197 871L196 2417" stroke-width="8" stroke="url(#SvgjsLinearGradient1040)" stroke-linecap="round" class="Up"></path><path d="M37 237L36 -1500" stroke-width="8" stroke="url(#SvgjsLinearGradient1040)" stroke-linecap="round" class="Up"></path><path d="M713 43L712 -1148" stroke-width="8" stroke="url(#SvgjsLinearGradient1040)" stroke-linecap="round" class="Up"></path><path d="M49 1429L48 3076" stroke-width="10" stroke="url(#SvgjsLinearGradient1040)" stroke-linecap="round" class="Up"></path><path d="M990 1543L989 3406" stroke-width="8" stroke="url(#SvgjsLinearGradient1041)" stroke-linecap="round" class="Down"></path><path d="M1193 962L1192 3064" stroke-width="8" stroke="url(#SvgjsLinearGradient1041)" stroke-linecap="round" class="Down"></path><path d="M388 585L387 -395" stroke-width="8" stroke="url(#SvgjsLinearGradient1040)" stroke-linecap="round" class="Up"></path><path d="M529 1236L528 3151" stroke-width="10" stroke="url(#SvgjsLinearGradient1040)" stroke-linecap="round" class="Up"></path><path d="M1174 651L1173 1887" stroke-width="10" stroke="url(#SvgjsLinearGradient1040)" stroke-linecap="round" class="Up"></path><path d="M734 789L733 2607" stroke-width="6" stroke="url(#SvgjsLinearGradient1040)" stroke-linecap="round" class="Up"></path><path d="M259 467L258 -513" stroke-width="8" stroke="url(#SvgjsLinearGradient1040)" stroke-linecap="round" class="Up"></path><path d="M765 1664L764 473" stroke-width="6" stroke="url(#SvgjsLinearGradient1040)" stroke-linecap="round" class="Up"></path><path d="M673 1892L672 4007" stroke-width="8" stroke="url(#SvgjsLinearGradient1041)" stroke-linecap="round" class="Down"></path><path d="M470 488L469 1241" stroke-width="10" stroke="url(#SvgjsLinearGradient1040)" stroke-linecap="round" class="Up"></path><path d="M999 2537L998 3299" stroke-width="8" stroke="url(#SvgjsLinearGradient1040)" stroke-linecap="round" class="Up"></path><path d="M682 2528L681 847" stroke-width="6" stroke="url(#SvgjsLinearGradient1041)" stroke-linecap="round" class="Down"></path><path d="M1332 699L1331 2820" stroke-width="8" stroke="url(#SvgjsLinearGradient1041)" stroke-linecap="round" class="Down"></path><path d="M377 2695L376 1398" stroke-width="8" stroke="url(#SvgjsLinearGradient1040)" stroke-linecap="round" class="Up"></path><path d="M220 611L219 2048" stroke-width="8" stroke="url(#SvgjsLinearGradient1040)" stroke-linecap="round" class="Up"></path><path d="M647 1775L646 3456" stroke-width="10" stroke="url(#SvgjsLinearGradient1041)" stroke-linecap="round" class="Down"></path><path d="M920 2328L919 3081" stroke-width="8" stroke="url(#SvgjsLinearGradient1040)" stroke-linecap="round" class="Up"></path><path d="M584 1015L583 2720" stroke-width="6" stroke="url(#SvgjsLinearGradient1041)" stroke-linecap="round" class="Down"></path><path d="M1215 2442L1214 728" stroke-width="8" stroke="url(#SvgjsLinearGradient1040)" stroke-linecap="round" class="Up"></path><path d="M176 492L175 -1060" stroke-width="6" stroke="url(#SvgjsLinearGradient1041)" stroke-linecap="round" class="Down"></path><path d="M229 1991L228 3241" stroke-width="10" stroke="url(#SvgjsLinearGradient1040)" stroke-linecap="round" class="Up"></path><path d="M70 2319L69 1211" stroke-width="10" stroke="url(#SvgjsLinearGradient1040)" stroke-linecap="round" class="Up"></path><path d="M825 2349L824 1158" stroke-width="8" stroke="url(#SvgjsLinearGradient1041)" stroke-linecap="round" class="Down"></path><path d="M997 2781L996 4051" stroke-width="10" stroke="url(#SvgjsLinearGradient1041)" stroke-linecap="round" class="Down"></path><path d="M286 1187L285 -63" stroke-width="8" stroke="url(#SvgjsLinearGradient1041)" stroke-linecap="round" class="Down"></path><path d="M1130 2628L1129 4059" stroke-width="10" stroke="url(#SvgjsLinearGradient1041)" stroke-linecap="round" class="Down"></path><path d="M982 2107L981 3811" stroke-width="8" stroke="url(#SvgjsLinearGradient1040)" stroke-linecap="round" class="Up"></path><path d="M1420 2244L1419 4265" stroke-width="10" stroke="url(#SvgjsLinearGradient1041)" stroke-linecap="round" class="Down"></path><path d="M263 622L262 1858" stroke-width="6" stroke="url(#SvgjsLinearGradient1041)" stroke-linecap="round" class="Down"></path><path d="M1325 140L1324 -1957" stroke-width="8" stroke="url(#SvgjsLinearGradient1040)" stroke-linecap="round" class="Up"></path></g><defs><mask id="SvgjsMask1039"><rect width="1440" height="2880" fill="#ffffff"></rect></mask><linearGradient x1="0%" y1="100%" x2="0%" y2="0%" id="SvgjsLinearGradient1040"><stop stop-color="rgba(255, 122, 0, 0)" offset="0"></stop><stop stop-color="rgba(255, 122, 0, 0.33)" offset="1"></stop></linearGradient><linearGradient x1="0%" y1="0%" x2="0%" y2="100%" id="SvgjsLinearGradient1041"><stop stop-color="rgba(255, 122, 0, 0)" offset="0"></stop><stop stop-color="rgba(255, 122, 0, 0.33)" offset="1"></stop></linearGradient></defs></svg>